<?xml version="1.0" encoding="utf-8"?>
<!-- Generator: Adobe Illustrator 22.1.0, SVG Export Plug-In . SVG Version: 6.00 Build 0)  -->
<svg version="1.1" id="Layer_1" xmlns="http://www.w3.org/2000/svg" xmlns:xlink="http://www.w3.org/1999/xlink" x="0px" y="0px"
	 viewBox="0 0 512 512" style="enable-background:new 0 0 512 512;" xml:space="preserve">
<style type="text/css">
	.st0{fill:#FFFFFF;}
</style>
<path class="st0" d="M250.6,288.7c0,0,0.7,8-3.7,46.1C220.6,463.5,83,405,77.2,286.5s71.7-199,174.1-206.3s200.3,87.9,184.3,203.4
	S327.4,428.4,327.4,428.4V503c124.3-32.2,204.8-165.3,174-305.7C447.3,10,229.4-42.6,97.7,65.7c-191.6,177-52.6,435.9,90.7,412.5
	S321.5,288,321.5,288V134.4c-38-19-70.9-16.1-70.9-16.1V217h-67.3v71.7L250.6,288.7L250.6,288.7z"/>
</svg>
